<?xml version="1.0" standalone="no"?>
<!DOCTYPE svg PUBLIC "-//W3C//DTD SVG 20010904//EN"
 "http://www.w3.org/TR/2001/REC-SVG-20010904/DTD/svg10.dtd">
<svg version="1.0" xmlns="http://www.w3.org/2000/svg"
 width="324.000000pt" height="144.000000pt" viewBox="0 0 324.000000 144.000000"
 preserveAspectRatio="xMidYMid meet">

<g transform="translate(0.000000,144.000000) scale(0.100000,-0.100000)"
fill="#000000" stroke="none">
<path d="M168 1422 l-137 -3 15 -27 c11 -22 14 -91 14 -352 0 -179 5 -432 10
-562 9 -240 15 -275 53 -306 7 -6 76 -21 153 -32 156 -23 317 -60 413 -96 36
-14 68 -21 72 -17 13 14 99 255 99 279 0 20 -53 69 -153 143 -18 13 -18 12 -3
-18 15 -28 15 -37 0 -103 -9 -40 -25 -82 -35 -93 -27 -27 -95 -24 -229 9 -145
37 -168 46 -174 70 -3 12 -6 249 -6 527 l0 506 25 38 c15 20 25 38 23 39 -2 0
-65 0 -140 -2z"/>
<path d="M1758 1293 c-20 -14 -56 -55 -80 -91 l-43 -66 -3 72 -3 72 -47 -39
c-26 -22 -67 -51 -92 -65 -40 -23 -42 -26 -19 -26 14 0 33 -8 42 -18 15 -16
16 -45 10 -266 -6 -234 -7 -248 -27 -262 -18 -13 -10 -14 83 -14 l104 0 -19
21 c-17 19 -19 42 -22 244 l-4 222 32 56 c17 30 37 58 45 61 22 8 46 -4 55
-29 5 -12 12 -151 16 -308 6 -258 5 -289 -10 -312 -9 -14 -14 -25 -10 -25 10
0 149 83 156 94 4 6 8 114 8 240 l0 228 32 49 c33 52 64 63 88 34 9 -11 15
-103 23 -315 9 -273 8 -302 -7 -325 -9 -14 -14 -25 -12 -25 3 0 39 21 81 46
l75 45 0 283 0 283 -50 71 c-28 40 -55 72 -62 72 -25 0 -82 -46 -119 -97 l-41
-55 -56 86 c-32 47 -64 85 -72 85 -8 0 -32 -12 -52 -26z"/>
<path d="M2486 1104 c-32 -13 -89 -42 -126 -65 l-68 -43 -6 -75 c-3 -42 -8
-134 -11 -206 -6 -125 -5 -131 17 -162 29 -39 148 -140 181 -152 42 -16 213
56 255 108 10 12 11 57 7 201 -9 272 -18 297 -131 377 l-59 41 -59 -24z m58
-69 c14 -55 25 -228 26 -382 l0 -162 -29 -20 c-38 -28 -55 -26 -80 6 -21 25
-21 36 -19 277 l3 250 40 28 c49 34 51 34 59 3z"/>
<path d="M2970 1039 c-107 -77 -170 -128 -170 -138 0 -4 60 -80 133 -168 74
-88 137 -168 141 -179 8 -21 -23 -94 -40 -94 -13 0 -89 53 -98 69 -4 6 -8 33
-9 61 l-2 50 -30 -6 c-41 -9 -95 -43 -95 -60 0 -31 30 -84 86 -153 32 -39 62
-71 67 -71 25 0 233 144 268 186 19 23 -6 61 -113 179 -112 123 -168 193 -168
210 0 22 41 65 61 65 32 0 77 -28 84 -51 4 -12 8 -44 8 -71 1 -34 4 -47 13
-44 7 3 30 8 51 12 58 10 73 21 73 53 0 45 -121 210 -155 210 -11 1 -58 -27
-105 -60z"/>
<path d="M1206 1054 c15 -21 18 -62 22 -254 l5 -228 -33 -41 c-35 -43 -67 -53
-93 -27 -14 14 -27 206 -27 392 l0 73 -56 45 c-31 26 -62 46 -70 46 -12 0 -14
-45 -14 -270 l0 -271 56 -79 c31 -44 58 -80 61 -80 14 0 96 66 131 105 22 25
42 42 45 38 2 -4 5 -39 6 -78 2 -38 3 -70 4 -70 1 0 42 2 92 5 l89 5 -28 18
c-49 32 -52 56 -46 375 5 276 6 295 24 308 18 12 8 14 -82 14 l-102 0 16 -26z"/>
</g>
</svg>
