<?xml version="1.0" standalone="no"?>
<!DOCTYPE svg PUBLIC "-//W3C//DTD SVG 20010904//EN"
 "http://www.w3.org/TR/2001/REC-SVG-20010904/DTD/svg10.dtd">
<svg version="1.0" xmlns="http://www.w3.org/2000/svg"
 width="226.000000pt" height="161.000000pt" viewBox="0 0 226.000000 161.000000"
 preserveAspectRatio="xMidYMid meet">

<g transform="translate(0.000000,161.000000) scale(0.100000,-0.100000)"
fill="#000000" stroke="none">
<path d="M82 1539 c20 -26 27 -62 49 -242 14 -117 25 -213 24 -215 -1 -1 -19
5 -40 13 -20 9 -39 14 -41 12 -2 -2 10 -93 26 -202 37 -246 37 -241 8 -221
-12 9 -25 16 -29 16 -3 0 9 -87 27 -192 19 -106 46 -265 61 -353 31 -183 31
-183 53 83 7 83 16 152 21 152 4 0 17 -15 29 -33 l22 -32 -6 223 c-2 122 -2
222 2 222 4 0 20 -20 35 -45 16 -25 31 -45 35 -45 3 0 2 113 -1 250 -4 138 -3
250 1 250 4 0 51 -120 104 -268 54 -147 120 -328 148 -402 27 -74 50 -139 50
-144 0 -6 -10 -20 -22 -33 l-21 -23 163 0 163 0 -19 21 c-18 20 -19 44 -19
568 0 507 1 549 18 574 l17 27 -130 0 c-130 0 -130 0 -110 -20 19 -19 20 -33
20 -462 0 -243 -3 -439 -6 -436 -3 4 -87 208 -186 455 -131 324 -181 460 -182
491 l0 42 -144 0 -143 0 23 -31z"/>
<path d="M1270 1263 c-32 -11 -157 -77 -196 -104 l-41 -28 -7 -93 c-12 -183
-9 -326 8 -353 9 -13 53 -54 98 -91 76 -61 86 -66 120 -61 49 7 153 56 197 93
l34 28 -6 201 c-4 110 -11 215 -16 234 -15 50 -49 94 -95 125 -23 15 -50 33
-61 40 -11 8 -27 11 -35 9z m30 -189 c6 -55 10 -180 8 -279 l-3 -180 -35 -17
c-34 -18 -35 -18 -59 7 l-25 25 -3 247 c-4 271 -6 263 57 301 44 27 47 23 60
-104z"/>
<path d="M1521 1234 c8 -9 30 -27 50 -39 27 -18 54 -56 112 -158 42 -74 77
-141 77 -148 0 -21 -197 -343 -226 -370 -14 -13 -44 -32 -67 -41 l-42 -17 155
0 c143 -1 153 0 132 15 -12 8 -22 21 -22 29 0 21 134 255 144 252 5 -2 36 -52
69 -111 l61 -109 -22 -18 c-22 -17 -20 -18 100 -21 169 -4 181 -1 120 27 -27
13 -57 34 -66 46 -28 40 -110 170 -155 245 l-42 72 63 112 c82 145 109 177
182 211 l61 29 -55 0 c-30 0 -85 -3 -121 -6 l-67 -7 -59 -105 c-33 -58 -64
-107 -69 -109 -5 -1 -31 39 -57 90 l-48 92 -102 28 c-119 32 -124 32 -106 11z"/>
</g>
</svg>
